<svg xmlns="http://www.w3.org/2000/svg" width="147.936" height="147.812" fill="none" overflow="visible"><g><path d="M 36.663 64.562 L 40.22 56.764 L 48.66 60.856 L 90.112 80.948 L 121.386 17.115 C 108.551 6.43 92.049 0 74.043 0 C 33.15 0 0 33.15 0 74.044 C 0 89.684 4.854 104.188 13.131 116.142 Z" fill="rgb(255, 255, 255)"></path><path d="M 104.55 100.212 L 99.013 109.971 L 89.885 104.741 L 47.468 80.438 L 20.5 125.063 C 33.973 139.084 52.913 147.812 73.893 147.812 C 114.786 147.812 147.936 114.662 147.936 73.768 C 147.936 61.201 144.8 49.368 139.276 39 L 104.549 100.211 Z" fill="rgb(255, 255, 255)"></path></g></svg>